<svg width="500" height="500" viewBox="0 0 500 500" fill="none" xmlns="http://www.w3.org/2000/svg">
<rect width="500" height="500" rx="250" fill="#171717"/>
<path d="M201.2 389.7C193.8 389.7 188.1 387.7 184.1 383.7C180.3 379.7 178.4 374 178.4 366.6V195.9C178.4 188.3 180.3 182.6 184.1 178.8C188.1 174.8 193.8 172.8 201.2 172.8C208.4 172.8 213.9 174.8 217.7 178.8C221.7 182.6 223.7 188.3 223.7 195.9V267.3H219.5C224.1 257.5 230.9 250 239.9 244.8C249.1 239.4 259.5 236.7 271.1 236.7C282.9 236.7 292.6 239 300.2 243.6C307.8 248 313.5 254.8 317.3 264C321.1 273 323 284.5 323 298.5V366.6C323 374 321 379.7 317 383.7C313.2 387.7 307.6 389.7 300.2 389.7C293 389.7 287.4 387.7 283.4 383.7C279.6 379.7 277.7 374 277.7 366.6V300.6C277.7 290.4 275.8 283.1 272 278.7C268.4 274.1 262.8 271.8 255.2 271.8C245.6 271.8 237.9 274.8 232.1 280.8C226.5 286.8 223.7 294.8 223.7 304.8V366.6C223.7 382 216.2 389.7 201.2 389.7Z" fill="white"/>
<rect x="161" y="109" width="179" height="30" rx="15" fill="#3B82F6"/>
</svg>
